<svg id="Group_59" data-name="Group 59" xmlns="http://www.w3.org/2000/svg" width="51.512" height="51.512" viewBox="0 0 51.512 51.512">
  <path id="Ellipse_10" data-name="Ellipse 10" d="M25.756,51.512A25.756,25.756,0,1,1,51.512,25.756,25.756,25.756,0,0,1,25.756,51.512Z" fill="#b59f7c"/>
  <path id="Path_80" data-name="Path 80" d="M2.032,16.869C.373,14.47-.894,10.092.808,7.136a4.729,4.729,0,0,1,4-2.421c1.247-.024,2.425.84,3.188.84s2.193-1.039,3.7-.885a4.51,4.51,0,0,1,3.533,1.916,4.37,4.37,0,0,0-2.087,3.676h0a4.271,4.271,0,0,0,2.593,3.908,10.546,10.546,0,0,1-1.339,2.745c-.8,1.177-1.641,2.35-2.957,2.374-1.293.023-1.71-.767-3.188-.767s-1.941.743-3.165.791H5.014C3.777,19.315,2.829,18.021,2.032,16.869ZM7.842,4.45A4.042,4.042,0,0,1,8.867,1.463,4.327,4.327,0,0,1,11.711,0a4.254,4.254,0,0,1-1,3.083h0A3.585,3.585,0,0,1,9.435,4.1a3.574,3.574,0,0,1-1.541.35Z" transform="translate(17.89 16.098)" fill="#fff"/>
</svg>
