<svg id="Group_58" data-name="Group 58" xmlns="http://www.w3.org/2000/svg" width="51.512" height="51.512" viewBox="0 0 51.512 51.512">
  <path id="Ellipse_8" data-name="Ellipse 8" d="M25.756,51.512A25.756,25.756,0,1,1,51.512,25.756,25.756,25.756,0,0,1,25.756,51.512Z" fill="#b59f7c"/>
  <g id="style_1_copy_6" transform="translate(16.292 16.098)">
    <path id="Path_78" data-name="Path 78" d="M18.93,9.876c0,5.517-3.694,9.441-9.271,9.441A9.659,9.659,0,0,1,9.659,0,9.271,9.271,0,0,1,16.118,2.52L13.395,5.243v-.01A5.29,5.29,0,0,0,9.661,3.771a5.884,5.884,0,0,0,0,11.765c2.892,0,4.859-1.654,5.265-3.924H9.661V7.846l9.082,0A10.955,10.955,0,0,1,18.93,9.876Z" transform="translate(0 0)" fill="#fff"/>
  </g>
</svg>
