<svg id="Group_12" data-name="Group 12" xmlns="http://www.w3.org/2000/svg" xmlns:xlink="http://www.w3.org/1999/xlink" width="413.137" height="220.148" viewBox="0 0 413.137 220.148">
  <defs>
    <clipPath id="clip-path">
      <rect id="Rectangle_3" data-name="Rectangle 3" width="413.137" height="220.148" fill="none"/>
    </clipPath>
  </defs>
  <g id="Group_11" data-name="Group 11" clip-path="url(#clip-path)">
    <path id="Path_1" data-name="Path 1" d="M35.406,8.006C41.088,6.723,42.129,5.682,43.412,0c1.284,5.682,2.325,6.723,8.006,8.006-5.682,1.284-6.722,2.325-8.006,8.006-1.284-5.682-2.325-6.723-8.006-8.006" transform="translate(-10.585)" fill="#b5a07d"/>
    <path id="Path_2" data-name="Path 2" d="M106.217,8.006C111.9,6.723,112.94,5.682,114.223,0c1.284,5.682,2.325,6.723,8.006,8.006-5.682,1.284-6.722,2.325-8.006,8.006-1.284-5.682-2.325-6.723-8.006-8.006" transform="translate(-31.756)" fill="#b5a07d"/>
    <path id="Path_3" data-name="Path 3" d="M177.028,8.006c5.682-1.284,6.723-2.325,8.006-8.006,1.284,5.682,2.325,6.723,8.006,8.006-5.682,1.284-6.722,2.325-8.006,8.006-1.284-5.682-2.325-6.723-8.006-8.006" transform="translate(-52.927)" fill="#b5a07d"/>
    <path id="Path_4" data-name="Path 4" d="M247.839,8.006c5.682-1.284,6.723-2.325,8.006-8.006,1.284,5.682,2.325,6.723,8.007,8.006-5.682,1.284-6.722,2.325-8.007,8.006-1.284-5.682-2.325-6.723-8.006-8.006" transform="translate(-74.097)" fill="#b5a07d"/>
    <path id="Path_5" data-name="Path 5" d="M318.65,8.006c5.682-1.284,6.723-2.325,8.006-8.006,1.284,5.682,2.325,6.723,8.006,8.006-5.682,1.284-6.722,2.325-8.006,8.006-1.284-5.682-2.325-6.723-8.006-8.006" transform="translate(-95.268)" fill="#b5a07d"/>
    <path id="Path_6" data-name="Path 6" d="M389.461,8.006c5.682-1.284,6.723-2.325,8.006-8.006,1.284,5.682,2.325,6.723,8.007,8.006-5.682,1.284-6.722,2.325-8.007,8.006-1.284-5.682-2.325-6.723-8.006-8.006" transform="translate(-116.438)" fill="#b5a07d"/>
    <path id="Path_7" data-name="Path 7" d="M460.272,8.006c5.682-1.284,6.723-2.325,8.006-8.006,1.284,5.682,2.325,6.723,8.006,8.006-5.682,1.284-6.722,2.325-8.006,8.006-1.284-5.682-2.325-6.723-8.006-8.006" transform="translate(-137.609)" fill="#b5a07d"/>
    <path id="Path_8" data-name="Path 8" d="M531.083,8.006c5.682-1.284,6.723-2.325,8.006-8.006,1.284,5.682,2.325,6.723,8.006,8.006-5.682,1.284-6.722,2.325-8.006,8.006-1.284-5.682-2.325-6.723-8.006-8.006" transform="translate(-158.78)" fill="#b5a07d"/>
    <path id="Path_9" data-name="Path 9" d="M35.406,80.805c5.682-1.284,6.723-2.325,8.006-8.006,1.284,5.682,2.325,6.723,8.006,8.006-5.682,1.284-6.722,2.325-8.006,8.006-1.284-5.682-2.325-6.723-8.006-8.006" transform="translate(-10.585 -21.765)" fill="#b5a07d"/>
    <path id="Path_10" data-name="Path 10" d="M106.217,80.805c5.682-1.284,6.723-2.325,8.006-8.006,1.284,5.682,2.325,6.723,8.006,8.006-5.682,1.284-6.722,2.325-8.006,8.006-1.284-5.682-2.325-6.723-8.006-8.006" transform="translate(-31.756 -21.765)" fill="#b5a07d"/>
    <path id="Path_11" data-name="Path 11" d="M177.028,80.805c5.682-1.284,6.723-2.325,8.006-8.006,1.284,5.682,2.325,6.723,8.006,8.006-5.682,1.284-6.722,2.325-8.006,8.006-1.284-5.682-2.325-6.723-8.006-8.006" transform="translate(-52.927 -21.765)" fill="#b5a07d"/>
    <path id="Path_12" data-name="Path 12" d="M247.839,80.805c5.682-1.284,6.723-2.325,8.006-8.006,1.284,5.682,2.325,6.723,8.007,8.006-5.682,1.284-6.722,2.325-8.007,8.006-1.284-5.682-2.325-6.723-8.006-8.006" transform="translate(-74.097 -21.765)" fill="#b5a07d"/>
    <path id="Path_13" data-name="Path 13" d="M318.65,80.805c5.682-1.284,6.723-2.325,8.006-8.006,1.284,5.682,2.325,6.723,8.006,8.006-5.682,1.284-6.722,2.325-8.006,8.006-1.284-5.682-2.325-6.723-8.006-8.006" transform="translate(-95.268 -21.765)" fill="#b5a07d"/>
    <path id="Path_14" data-name="Path 14" d="M389.461,80.805c5.682-1.284,6.723-2.325,8.006-8.006,1.284,5.682,2.325,6.723,8.007,8.006-5.682,1.284-6.722,2.325-8.007,8.006-1.284-5.682-2.325-6.723-8.006-8.006" transform="translate(-116.438 -21.765)" fill="#b5a07d"/>
    <path id="Path_15" data-name="Path 15" d="M460.272,80.805c5.682-1.284,6.723-2.325,8.006-8.006,1.284,5.682,2.325,6.723,8.006,8.006-5.682,1.284-6.722,2.325-8.006,8.006-1.284-5.682-2.325-6.723-8.006-8.006" transform="translate(-137.609 -21.765)" fill="#b5a07d"/>
    <path id="Path_16" data-name="Path 16" d="M531.083,80.805c5.682-1.284,6.723-2.325,8.006-8.006,1.284,5.682,2.325,6.723,8.006,8.006-5.682,1.284-6.722,2.325-8.006,8.006-1.284-5.682-2.325-6.723-8.006-8.006" transform="translate(-158.78 -21.765)" fill="#b5a07d"/>
    <path id="Path_17" data-name="Path 17" d="M0,44.405c5.682-1.284,6.723-2.325,8.006-8.006,1.284,5.682,2.325,6.723,8.006,8.006-5.682,1.284-6.722,2.325-8.006,8.006C6.723,46.73,5.682,45.689,0,44.405" transform="translate(0 -10.882)" fill="#b5a07d"/>
    <path id="Path_18" data-name="Path 18" d="M566.489,44.405c5.682-1.284,6.723-2.325,8.006-8.006,1.284,5.682,2.325,6.723,8.006,8.006-5.682,1.284-6.722,2.325-8.006,8.006-1.284-5.682-2.325-6.723-8.006-8.006" transform="translate(-169.365 -10.882)" fill="#b5a07d"/>
    <path id="Path_19" data-name="Path 19" d="M70.811,44.405c5.682-1.284,6.723-2.325,8.006-8.006,1.284,5.682,2.325,6.723,8.006,8.006-5.682,1.284-6.722,2.325-8.006,8.006-1.284-5.682-2.325-6.723-8.006-8.006" transform="translate(-21.171 -10.882)" fill="#b5a07d"/>
    <path id="Path_20" data-name="Path 20" d="M141.622,44.405c5.682-1.284,6.723-2.325,8.006-8.006,1.284,5.682,2.325,6.723,8.006,8.006-5.682,1.284-6.722,2.325-8.006,8.006-1.284-5.682-2.325-6.723-8.006-8.006" transform="translate(-42.341 -10.882)" fill="#b5a07d"/>
    <path id="Path_21" data-name="Path 21" d="M212.433,44.405c5.682-1.284,6.723-2.325,8.006-8.006,1.284,5.682,2.325,6.723,8.006,8.006-5.682,1.284-6.722,2.325-8.006,8.006-1.284-5.682-2.325-6.723-8.006-8.006" transform="translate(-63.512 -10.882)" fill="#b5a07d"/>
    <path id="Path_22" data-name="Path 22" d="M283.245,44.405c5.681-1.284,6.723-2.325,8.006-8.006,1.284,5.682,2.325,6.723,8.006,8.006-5.681,1.284-6.722,2.325-8.006,8.006-1.283-5.682-2.325-6.723-8.006-8.006" transform="translate(-84.683 -10.882)" fill="#b5a07d"/>
    <path id="Path_23" data-name="Path 23" d="M354.056,44.405c5.682-1.284,6.723-2.325,8.006-8.006,1.284,5.682,2.325,6.723,8.006,8.006-5.682,1.284-6.722,2.325-8.006,8.006-1.284-5.682-2.325-6.723-8.006-8.006" transform="translate(-105.853 -10.882)" fill="#b5a07d"/>
    <path id="Path_24" data-name="Path 24" d="M424.867,44.405c5.682-1.284,6.723-2.325,8.006-8.006,1.284,5.682,2.325,6.723,8.006,8.006-5.682,1.284-6.722,2.325-8.006,8.006-1.284-5.682-2.325-6.723-8.006-8.006" transform="translate(-127.024 -10.882)" fill="#b5a07d"/>
    <path id="Path_25" data-name="Path 25" d="M495.678,44.405c5.682-1.284,6.723-2.325,8.006-8.006,1.284,5.682,2.325,6.723,8.006,8.006-5.682,1.284-6.722,2.325-8.006,8.006-1.284-5.682-2.325-6.723-8.006-8.006" transform="translate(-148.195 -10.882)" fill="#b5a07d"/>
    <path id="Path_26" data-name="Path 26" d="M0,117.2c5.682-1.284,6.723-2.325,8.006-8.006,1.284,5.682,2.325,6.723,8.006,8.006-5.682,1.284-6.722,2.325-8.006,8.006C6.723,119.529,5.682,118.488,0,117.2" transform="translate(0 -32.647)" fill="#b5a07d"/>
    <path id="Path_27" data-name="Path 27" d="M566.489,117.2c5.682-1.284,6.723-2.325,8.006-8.006,1.284,5.682,2.325,6.723,8.006,8.006-5.682,1.284-6.722,2.325-8.006,8.006-1.284-5.682-2.325-6.723-8.006-8.006" transform="translate(-169.365 -32.647)" fill="#b5a07d"/>
    <path id="Path_28" data-name="Path 28" d="M70.811,117.2c5.682-1.284,6.723-2.325,8.006-8.006,1.284,5.682,2.325,6.723,8.006,8.006-5.682,1.284-6.722,2.325-8.006,8.006-1.284-5.682-2.325-6.723-8.006-8.006" transform="translate(-21.171 -32.647)" fill="#b5a07d"/>
    <path id="Path_29" data-name="Path 29" d="M141.622,117.2c5.682-1.284,6.723-2.325,8.006-8.006,1.284,5.682,2.325,6.723,8.006,8.006-5.682,1.284-6.722,2.325-8.006,8.006-1.284-5.682-2.325-6.723-8.006-8.006" transform="translate(-42.341 -32.647)" fill="#b5a07d"/>
    <path id="Path_30" data-name="Path 30" d="M212.433,117.2c5.682-1.284,6.723-2.325,8.006-8.006,1.284,5.682,2.325,6.723,8.006,8.006-5.682,1.284-6.722,2.325-8.006,8.006-1.284-5.682-2.325-6.723-8.006-8.006" transform="translate(-63.512 -32.647)" fill="#b5a07d"/>
    <path id="Path_31" data-name="Path 31" d="M283.245,117.2c5.681-1.284,6.723-2.325,8.006-8.006,1.284,5.682,2.325,6.723,8.006,8.006-5.681,1.284-6.722,2.325-8.006,8.006-1.283-5.682-2.325-6.723-8.006-8.006" transform="translate(-84.683 -32.647)" fill="#b5a07d"/>
    <path id="Path_32" data-name="Path 32" d="M354.056,117.2c5.682-1.284,6.723-2.325,8.006-8.006,1.284,5.682,2.325,6.723,8.006,8.006-5.682,1.284-6.722,2.325-8.006,8.006-1.284-5.682-2.325-6.723-8.006-8.006" transform="translate(-105.853 -32.647)" fill="#b5a07d"/>
    <path id="Path_33" data-name="Path 33" d="M424.867,117.2c5.682-1.284,6.723-2.325,8.006-8.006,1.284,5.682,2.325,6.723,8.006,8.006-5.682,1.284-6.722,2.325-8.006,8.006-1.284-5.682-2.325-6.723-8.006-8.006" transform="translate(-127.024 -32.647)" fill="#b5a07d"/>
    <path id="Path_34" data-name="Path 34" d="M495.678,117.2c5.682-1.284,6.723-2.325,8.006-8.006,1.284,5.682,2.325,6.723,8.006,8.006-5.682,1.284-6.722,2.325-8.006,8.006-1.284-5.682-2.325-6.723-8.006-8.006" transform="translate(-148.195 -32.647)" fill="#b5a07d"/>
    <path id="Path_35" data-name="Path 35" d="M0,190c5.682-1.284,6.723-2.325,8.006-8.006,1.284,5.682,2.325,6.723,8.006,8.006-5.682,1.284-6.722,2.325-8.006,8.006C6.723,192.327,5.682,191.286,0,190" transform="translate(0 -54.412)" fill="#b5a07d"/>
    <path id="Path_36" data-name="Path 36" d="M566.489,190c5.682-1.284,6.723-2.325,8.006-8.006,1.284,5.682,2.325,6.723,8.006,8.006-5.682,1.284-6.722,2.325-8.006,8.006-1.284-5.682-2.325-6.723-8.006-8.006" transform="translate(-169.365 -54.412)" fill="#b5a07d"/>
    <path id="Path_37" data-name="Path 37" d="M70.811,190c5.682-1.284,6.723-2.325,8.006-8.006,1.284,5.682,2.325,6.723,8.006,8.006-5.682,1.284-6.722,2.325-8.006,8.006-1.284-5.682-2.325-6.723-8.006-8.006" transform="translate(-21.171 -54.412)" fill="#b5a07d"/>
    <path id="Path_38" data-name="Path 38" d="M141.622,190c5.682-1.284,6.723-2.325,8.006-8.006,1.284,5.682,2.325,6.723,8.006,8.006-5.682,1.284-6.722,2.325-8.006,8.006-1.284-5.682-2.325-6.723-8.006-8.006" transform="translate(-42.341 -54.412)" fill="#b5a07d"/>
    <path id="Path_39" data-name="Path 39" d="M212.433,190c5.682-1.284,6.723-2.325,8.006-8.006,1.284,5.682,2.325,6.723,8.006,8.006-5.682,1.284-6.722,2.325-8.006,8.006-1.284-5.682-2.325-6.723-8.006-8.006" transform="translate(-63.512 -54.412)" fill="#b5a07d"/>
    <path id="Path_40" data-name="Path 40" d="M283.245,190c5.681-1.284,6.723-2.325,8.006-8.006,1.284,5.682,2.325,6.723,8.006,8.006-5.681,1.284-6.722,2.325-8.006,8.006-1.283-5.682-2.325-6.723-8.006-8.006" transform="translate(-84.683 -54.412)" fill="#b5a07d"/>
    <path id="Path_41" data-name="Path 41" d="M354.056,190c5.682-1.284,6.723-2.325,8.006-8.006,1.284,5.682,2.325,6.723,8.006,8.006-5.682,1.284-6.722,2.325-8.006,8.006-1.284-5.682-2.325-6.723-8.006-8.006" transform="translate(-105.853 -54.412)" fill="#b5a07d"/>
    <path id="Path_42" data-name="Path 42" d="M424.867,190c5.682-1.284,6.723-2.325,8.006-8.006,1.284,5.682,2.325,6.723,8.006,8.006-5.682,1.284-6.722,2.325-8.006,8.006-1.284-5.682-2.325-6.723-8.006-8.006" transform="translate(-127.024 -54.412)" fill="#b5a07d"/>
    <path id="Path_43" data-name="Path 43" d="M495.678,190c5.682-1.284,6.723-2.325,8.006-8.006,1.284,5.682,2.325,6.723,8.006,8.006-5.682,1.284-6.722,2.325-8.006,8.006-1.284-5.682-2.325-6.723-8.006-8.006" transform="translate(-148.195 -54.412)" fill="#b5a07d"/>
    <path id="Path_44" data-name="Path 44" d="M0,262.8c5.682-1.284,6.723-2.325,8.006-8.006,1.284,5.682,2.325,6.723,8.006,8.006-5.682,1.284-6.722,2.325-8.006,8.006C6.723,265.126,5.682,264.085,0,262.8" transform="translate(0 -76.177)" fill="#b5a07d"/>
    <path id="Path_45" data-name="Path 45" d="M566.489,262.8c5.682-1.284,6.723-2.325,8.006-8.006,1.284,5.682,2.325,6.723,8.006,8.006-5.682,1.284-6.722,2.325-8.006,8.006-1.284-5.682-2.325-6.723-8.006-8.006" transform="translate(-169.365 -76.177)" fill="#b5a07d"/>
    <path id="Path_46" data-name="Path 46" d="M70.811,262.8c5.682-1.284,6.723-2.325,8.006-8.006,1.284,5.682,2.325,6.723,8.006,8.006-5.682,1.284-6.722,2.325-8.006,8.006-1.284-5.682-2.325-6.723-8.006-8.006" transform="translate(-21.171 -76.177)" fill="#b5a07d"/>
    <path id="Path_47" data-name="Path 47" d="M141.622,262.8c5.682-1.284,6.723-2.325,8.006-8.006,1.284,5.682,2.325,6.723,8.006,8.006-5.682,1.284-6.722,2.325-8.006,8.006-1.284-5.682-2.325-6.723-8.006-8.006" transform="translate(-42.341 -76.177)" fill="#b5a07d"/>
    <path id="Path_48" data-name="Path 48" d="M212.433,262.8c5.682-1.284,6.723-2.325,8.006-8.006,1.284,5.682,2.325,6.723,8.006,8.006-5.682,1.284-6.722,2.325-8.006,8.006-1.284-5.682-2.325-6.723-8.006-8.006" transform="translate(-63.512 -76.177)" fill="#b5a07d"/>
    <path id="Path_49" data-name="Path 49" d="M283.245,262.8c5.681-1.284,6.723-2.325,8.006-8.006,1.284,5.682,2.325,6.723,8.006,8.006-5.681,1.284-6.722,2.325-8.006,8.006-1.283-5.682-2.325-6.723-8.006-8.006" transform="translate(-84.683 -76.177)" fill="#b5a07d"/>
    <path id="Path_50" data-name="Path 50" d="M354.056,262.8c5.682-1.284,6.723-2.325,8.006-8.006,1.284,5.682,2.325,6.723,8.006,8.006-5.682,1.284-6.722,2.325-8.006,8.006-1.284-5.682-2.325-6.723-8.006-8.006" transform="translate(-105.853 -76.177)" fill="#b5a07d"/>
    <path id="Path_51" data-name="Path 51" d="M424.867,262.8c5.682-1.284,6.723-2.325,8.006-8.006,1.284,5.682,2.325,6.723,8.006,8.006-5.682,1.284-6.722,2.325-8.006,8.006-1.284-5.682-2.325-6.723-8.006-8.006" transform="translate(-127.024 -76.177)" fill="#b5a07d"/>
    <path id="Path_52" data-name="Path 52" d="M495.678,262.8c5.682-1.284,6.723-2.325,8.006-8.006,1.284,5.682,2.325,6.723,8.006,8.006-5.682,1.284-6.722,2.325-8.006,8.006-1.284-5.682-2.325-6.723-8.006-8.006" transform="translate(-148.195 -76.177)" fill="#b5a07d"/>
    <path id="Path_53" data-name="Path 53" d="M35.406,153.6c5.682-1.284,6.723-2.325,8.006-8.006,1.284,5.682,2.325,6.723,8.006,8.006-5.682,1.284-6.722,2.325-8.006,8.006-1.284-5.682-2.325-6.723-8.006-8.006" transform="translate(-10.585 -43.53)" fill="#b5a07d"/>
    <path id="Path_54" data-name="Path 54" d="M106.217,153.6c5.682-1.284,6.723-2.325,8.006-8.006,1.284,5.682,2.325,6.723,8.006,8.006-5.682,1.284-6.722,2.325-8.006,8.006-1.284-5.682-2.325-6.723-8.006-8.006" transform="translate(-31.756 -43.53)" fill="#b5a07d"/>
    <path id="Path_55" data-name="Path 55" d="M177.028,153.6c5.682-1.284,6.723-2.325,8.006-8.006,1.284,5.682,2.325,6.723,8.006,8.006-5.682,1.284-6.722,2.325-8.006,8.006-1.284-5.682-2.325-6.723-8.006-8.006" transform="translate(-52.927 -43.53)" fill="#b5a07d"/>
    <path id="Path_56" data-name="Path 56" d="M247.839,153.6c5.682-1.284,6.723-2.325,8.006-8.006,1.284,5.682,2.325,6.723,8.007,8.006-5.682,1.284-6.722,2.325-8.007,8.006-1.284-5.682-2.325-6.723-8.006-8.006" transform="translate(-74.097 -43.53)" fill="#b5a07d"/>
    <path id="Path_57" data-name="Path 57" d="M318.65,153.6c5.682-1.284,6.723-2.325,8.006-8.006,1.284,5.682,2.325,6.723,8.006,8.006-5.682,1.284-6.722,2.325-8.006,8.006-1.284-5.682-2.325-6.723-8.006-8.006" transform="translate(-95.268 -43.53)" fill="#b5a07d"/>
    <path id="Path_58" data-name="Path 58" d="M389.461,153.6c5.682-1.284,6.723-2.325,8.006-8.006,1.284,5.682,2.325,6.723,8.007,8.006-5.682,1.284-6.722,2.325-8.007,8.006-1.284-5.682-2.325-6.723-8.006-8.006" transform="translate(-116.438 -43.53)" fill="#b5a07d"/>
    <path id="Path_59" data-name="Path 59" d="M460.272,153.6c5.682-1.284,6.723-2.325,8.006-8.006,1.284,5.682,2.325,6.723,8.006,8.006-5.682,1.284-6.722,2.325-8.006,8.006-1.284-5.682-2.325-6.723-8.006-8.006" transform="translate(-137.609 -43.53)" fill="#b5a07d"/>
    <path id="Path_60" data-name="Path 60" d="M531.083,153.6c5.682-1.284,6.723-2.325,8.006-8.006,1.284,5.682,2.325,6.723,8.006,8.006-5.682,1.284-6.722,2.325-8.006,8.006-1.284-5.682-2.325-6.723-8.006-8.006" transform="translate(-158.78 -43.53)" fill="#b5a07d"/>
    <path id="Path_61" data-name="Path 61" d="M35.406,226.4c5.682-1.284,6.723-2.325,8.006-8.006,1.284,5.682,2.325,6.723,8.006,8.006-5.682,1.284-6.722,2.325-8.006,8.006-1.284-5.682-2.325-6.723-8.006-8.006" transform="translate(-10.585 -65.294)" fill="#b5a07d"/>
    <path id="Path_62" data-name="Path 62" d="M106.217,226.4c5.682-1.284,6.723-2.325,8.006-8.006,1.284,5.682,2.325,6.723,8.006,8.006-5.682,1.284-6.722,2.325-8.006,8.006-1.284-5.682-2.325-6.723-8.006-8.006" transform="translate(-31.756 -65.294)" fill="#b5a07d"/>
    <path id="Path_63" data-name="Path 63" d="M177.028,226.4c5.682-1.284,6.723-2.325,8.006-8.006,1.284,5.682,2.325,6.723,8.006,8.006-5.682,1.284-6.722,2.325-8.006,8.006-1.284-5.682-2.325-6.723-8.006-8.006" transform="translate(-52.927 -65.294)" fill="#b5a07d"/>
    <path id="Path_64" data-name="Path 64" d="M247.839,226.4c5.682-1.284,6.723-2.325,8.006-8.006,1.284,5.682,2.325,6.723,8.007,8.006-5.682,1.284-6.722,2.325-8.007,8.006-1.284-5.682-2.325-6.723-8.006-8.006" transform="translate(-74.097 -65.294)" fill="#b5a07d"/>
    <path id="Path_65" data-name="Path 65" d="M318.65,226.4c5.682-1.284,6.723-2.325,8.006-8.006,1.284,5.682,2.325,6.723,8.006,8.006-5.682,1.284-6.722,2.325-8.006,8.006-1.284-5.682-2.325-6.723-8.006-8.006" transform="translate(-95.268 -65.294)" fill="#b5a07d"/>
    <path id="Path_66" data-name="Path 66" d="M389.461,226.4c5.682-1.284,6.723-2.325,8.006-8.006,1.284,5.682,2.325,6.723,8.007,8.006-5.682,1.284-6.722,2.325-8.007,8.006-1.284-5.682-2.325-6.723-8.006-8.006" transform="translate(-116.438 -65.294)" fill="#b5a07d"/>
    <path id="Path_67" data-name="Path 67" d="M460.272,226.4c5.682-1.284,6.723-2.325,8.006-8.006,1.284,5.682,2.325,6.723,8.006,8.006-5.682,1.284-6.722,2.325-8.006,8.006-1.284-5.682-2.325-6.723-8.006-8.006" transform="translate(-137.609 -65.294)" fill="#b5a07d"/>
    <path id="Path_68" data-name="Path 68" d="M531.083,226.4c5.682-1.284,6.723-2.325,8.006-8.006,1.284,5.682,2.325,6.723,8.006,8.006-5.682,1.284-6.722,2.325-8.006,8.006-1.284-5.682-2.325-6.723-8.006-8.006" transform="translate(-158.78 -65.294)" fill="#b5a07d"/>
    <path id="Path_69" data-name="Path 69" d="M35.406,299.2c5.682-1.284,6.723-2.325,8.006-8.006,1.284,5.682,2.325,6.723,8.006,8.006-5.682,1.284-6.722,2.325-8.006,8.006-1.284-5.682-2.325-6.723-8.006-8.006" transform="translate(-10.585 -87.059)" fill="#b5a07d"/>
    <path id="Path_70" data-name="Path 70" d="M106.217,299.2c5.682-1.284,6.723-2.325,8.006-8.006,1.284,5.682,2.325,6.723,8.006,8.006-5.682,1.284-6.722,2.325-8.006,8.006-1.284-5.682-2.325-6.723-8.006-8.006" transform="translate(-31.756 -87.059)" fill="#b5a07d"/>
    <path id="Path_71" data-name="Path 71" d="M177.028,299.2c5.682-1.284,6.723-2.325,8.006-8.006,1.284,5.682,2.325,6.723,8.006,8.006-5.682,1.284-6.722,2.325-8.006,8.006-1.284-5.682-2.325-6.723-8.006-8.006" transform="translate(-52.927 -87.059)" fill="#b5a07d"/>
    <path id="Path_72" data-name="Path 72" d="M247.839,299.2c5.682-1.284,6.723-2.325,8.006-8.006,1.284,5.682,2.325,6.723,8.007,8.006-5.682,1.284-6.722,2.325-8.007,8.006-1.284-5.682-2.325-6.723-8.006-8.006" transform="translate(-74.097 -87.059)" fill="#b5a07d"/>
    <path id="Path_73" data-name="Path 73" d="M318.65,299.2c5.682-1.284,6.723-2.325,8.006-8.006,1.284,5.682,2.325,6.723,8.006,8.006-5.682,1.284-6.722,2.325-8.006,8.006-1.284-5.682-2.325-6.723-8.006-8.006" transform="translate(-95.268 -87.059)" fill="#b5a07d"/>
    <path id="Path_74" data-name="Path 74" d="M389.461,299.2c5.682-1.284,6.723-2.325,8.006-8.006,1.284,5.682,2.325,6.723,8.007,8.006-5.682,1.284-6.722,2.325-8.007,8.006-1.284-5.682-2.325-6.723-8.006-8.006" transform="translate(-116.438 -87.059)" fill="#b5a07d"/>
    <path id="Path_75" data-name="Path 75" d="M460.272,299.2c5.682-1.284,6.723-2.325,8.006-8.006,1.284,5.682,2.325,6.723,8.006,8.006-5.682,1.284-6.722,2.325-8.006,8.006-1.284-5.682-2.325-6.723-8.006-8.006" transform="translate(-137.609 -87.059)" fill="#b5a07d"/>
    <path id="Path_76" data-name="Path 76" d="M531.083,299.2c5.682-1.284,6.723-2.325,8.006-8.006,1.284,5.682,2.325,6.723,8.006,8.006-5.682,1.284-6.722,2.325-8.006,8.006-1.284-5.682-2.325-6.723-8.006-8.006" transform="translate(-158.78 -87.059)" fill="#b5a07d"/>
  </g>
</svg>
